<?xml version="1.0" encoding="UTF-8" standalone="no"?>
<svg
   xmlns:dc="http://purl.org/dc/elements/1.1/"
   xmlns:cc="http://creativecommons.org/ns#"
   xmlns:rdf="http://www.w3.org/1999/02/22-rdf-syntax-ns#"
   xmlns:svg="http://www.w3.org/2000/svg"
   xmlns="http://www.w3.org/2000/svg"
   xmlns:sodipodi="http://sodipodi.sourceforge.net/DTD/sodipodi-0.dtd"
   xmlns:inkscape="http://www.inkscape.org/namespaces/inkscape"
   viewBox="0 0 16 16"
   id="svg6308"
   version="1.1"
   sodipodi:docname="folder_dup.svg"
   inkscape:version="0.92.4 5da689c313, 2019-01-14">
  <sodipodi:namedview
     pagecolor="#ffffff"
     bordercolor="#666666"
     borderopacity="1"
     objecttolerance="10"
     gridtolerance="10"
     guidetolerance="10"
     inkscape:pageopacity="0"
     inkscape:pageshadow="2"
     inkscape:window-width="1236"
     inkscape:window-height="1347"
     id="namedview1439"
     showgrid="false"
     inkscape:zoom="38.5"
     inkscape:cx="8"
     inkscape:cy="8"
     inkscape:window-x="1287"
     inkscape:window-y="56"
     inkscape:window-maximized="0"
     inkscape:current-layer="svg6308" />
  <metadata
     id="metadata6314">
    <rdf:RDF>
      <cc:Work
         rdf:about="">
        <dc:format>image/svg+xml</dc:format>
        <dc:type
           rdf:resource="http://purl.org/dc/dcmitype/StillImage" />
        <dc:title />
      </cc:Work>
    </rdf:RDF>
  </metadata>
  <defs
     id="defs6312" />
  <path
     id="path6318"
     d="m 4.9954835,5.586265 a 2.4134915,2.4134915 0 0 0 -2.403457,2.41248 2.4134915,2.4134915 0 0 0 2.403457,2.413125 h 0.436348 c 0.0058,2.97e-4 0.01154,0.0019 0.0174,0.0019 h 0.673535 c 0.205195,0 0.370606,-0.180591 0.370606,-0.404765 v -0.0232 c 0,-0.224174 -0.165411,-0.404766 -0.370606,-0.404766 h -0.522715 v -0.0013 h -0.60457 v 6.6e-4 A 1.5814812,1.5814812 0 0 1 3.4208935,7.999332 1.5814812,1.5814812 0 0 1 4.9954825,6.418297 v -0.0084 c 0,0.0042 0.0036,0.0077 0.0077,0.0077 h 1.997402 c 0.0042,0 0.0077,-0.0036 0.0077,-0.0077 v 0.0077 a 1.5814812,1.5814812 0 0 1 0.05027,-0.0019 1.5814812,1.5814812 0 0 1 1.581036,1.57459 v 0.317754 0.01547 h 0.0032 c 0.0085,0.168612 0.144402,0.30293 0.315176,0.30293 h 0.194003 c 0.17078,0 0.306098,-0.134311 0.314532,-0.30293 h 0.0032 V 8.308041 7.990287 h 0.0013 a 2.4134915,2.4134915 0 0 0 -2.413125,-2.403457 2.4134915,2.4134915 0 0 0 -0.04963,0.0026 v 0.0045 c 0,-0.0042 -0.0036,-0.0077 -0.0077,-0.0077 h -1.997402 c -0.0042,0 -0.0077,0.0036 -0.0077,0.0077 z m 5.4043955,0 v 0.0013 H 9.8771635 c -0.205195,0 -0.370606,0.180592 -0.370606,0.404766 v 0.0232 c 0,0.224174 0.165411,0.404766 0.370606,0.404766 h 0.6741795 c 0.0059,0 0.01097,-0.0017 0.01676,-0.0019 h 0.436348 a 1.5814812,1.5814812 0 0 1 1.57459,1.581051 1.5814812,1.5814812 0 0 1 -1.57459,1.581035 v 0.0077 c 0,-0.0042 -0.0036,-0.0077 -0.0077,-0.0077 H 9.0573565 v -0.0013 a 1.5814812,1.5814812 0 0 1 -0.03352,0.0013 h -0.02449 A 1.5814812,1.5814812 0 0 1 7.4260455,8.006538 h -0.0013 V 7.673315 h -0.0032 c -0.0085,-0.168619 -0.144386,-0.30293 -0.315165,-0.30293 h -0.194004 c -0.170779,0 -0.306098,0.134311 -0.314531,0.30293 h -0.0032 v 0.333223 a 2.4134915,2.4134915 0 0 0 2.402168,2.402812 c 0.0011,6.6e-4 0.0012,0.0026 0.0026,0.0026 h 1.9974025 c 0.0042,0 0.0077,-0.0036 0.0077,-0.0077 v 0.0077 a 2.4134915,2.4134915 0 0 0 2.403458,-2.413125 2.4134915,2.4134915 0 0 0 -2.403458,-2.41248 z"
     style="display:inline;opacity:1;fill-opacity:1;stroke:none;stroke-width:0.6938619;stroke-linecap:square;stroke-linejoin:miter;stroke-miterlimit:4;stroke-dasharray:none;stroke-dashoffset:0;stroke-opacity:1;paint-order:normal;fill:%%grey-bright%%"
     inkscape:connector-curvature="0" />
</svg>
