<?xml version="1.0" encoding="UTF-8" standalone="no"?>
<svg
   xmlns:dc="http://purl.org/dc/elements/1.1/"
   xmlns:cc="http://creativecommons.org/ns#"
   xmlns:rdf="http://www.w3.org/1999/02/22-rdf-syntax-ns#"
   xmlns:svg="http://www.w3.org/2000/svg"
   xmlns="http://www.w3.org/2000/svg"
   xmlns:sodipodi="http://sodipodi.sourceforge.net/DTD/sodipodi-0.dtd"
   xmlns:inkscape="http://www.inkscape.org/namespaces/inkscape"
   viewBox="0 0 16 16"
   id="svg1814"
   version="1.1"
   sodipodi:docname="close.svg"
   inkscape:version="0.92.4 5da689c313, 2019-01-14">
  <sodipodi:namedview
     pagecolor="#ffffff"
     bordercolor="#666666"
     borderopacity="1"
     objecttolerance="10"
     gridtolerance="10"
     guidetolerance="10"
     inkscape:pageopacity="0"
     inkscape:pageshadow="2"
     inkscape:window-width="1236"
     inkscape:window-height="1347"
     id="namedview1307"
     showgrid="false"
     inkscape:zoom="38.5"
     inkscape:cx="8"
     inkscape:cy="8"
     inkscape:window-x="1287"
     inkscape:window-y="56"
     inkscape:window-maximized="0"
     inkscape:current-layer="svg1814" />
  <metadata
     id="metadata1820">
    <rdf:RDF>
      <cc:Work
         rdf:about="">
        <dc:format>image/svg+xml</dc:format>
        <dc:type
           rdf:resource="http://purl.org/dc/dcmitype/StillImage" />
        <dc:title />
      </cc:Work>
    </rdf:RDF>
  </metadata>
  <defs
     id="defs1818" />
  <path
     id="rect1834"
     d="M 6.259762,4.823437 4.819235,6.263964 c -0.003,0.003 -0.003,0.0073 0,0.01031 L 6.549157,8.004195 4.827614,9.725738 c -0.003,0.003 -0.003,0.0073 0,0.01031 l 1.440527,1.440527 c 0.003,0.003 0.008,0.003 0.01096,0 L 8,9.455032 9.721543,11.176575 c 0.003,0.003 0.008,0.003 0.01096,0 L 11.17303,9.736048 c 0.003,-0.003 0.003,-0.008 0,-0.01096 L 9.451488,8.004189 11.180765,6.274912 c 0.003,-0.003 0.003,-0.008 0,-0.01096 L 9.740238,4.823425 c -0.003,-0.003 -0.0073,-0.003 -0.01031,0 L 8.00065,6.552702 6.270729,4.823425 c -0.003,-0.003 -0.008,-0.003 -0.01096,0 z"
     style="display:inline;opacity:1;fill-opacity:1;stroke:none;stroke-width:0.82829016;stroke-linecap:square;stroke-linejoin:miter;stroke-miterlimit:4;stroke-dasharray:none;stroke-dashoffset:0;stroke-opacity:1;paint-order:normal;fill:%%fg-dark%%"
     inkscape:connector-curvature="0" />
</svg>
