<?xml version="1.0" encoding="UTF-8" standalone="no"?>
<svg
   xmlns:dc="http://purl.org/dc/elements/1.1/"
   xmlns:cc="http://creativecommons.org/ns#"
   xmlns:rdf="http://www.w3.org/1999/02/22-rdf-syntax-ns#"
   xmlns:svg="http://www.w3.org/2000/svg"
   xmlns="http://www.w3.org/2000/svg"
   xmlns:sodipodi="http://sodipodi.sourceforge.net/DTD/sodipodi-0.dtd"
   xmlns:inkscape="http://www.inkscape.org/namespaces/inkscape"
   viewBox="0 0 48 48"
   id="svg7052"
   version="1.1"
   sodipodi:docname="tab_current_2.svg"
   inkscape:version="0.92.4 5da689c313, 2019-01-14">
  <sodipodi:namedview
     pagecolor="#ffffff"
     bordercolor="#666666"
     borderopacity="1"
     objecttolerance="10"
     gridtolerance="10"
     guidetolerance="10"
     inkscape:pageopacity="0"
     inkscape:pageshadow="2"
     inkscape:window-width="1236"
     inkscape:window-height="1347"
     id="namedview1807"
     showgrid="false"
     inkscape:zoom="12.833333"
     inkscape:cx="24"
     inkscape:cy="24"
     inkscape:window-x="1287"
     inkscape:window-y="56"
     inkscape:window-maximized="0"
     inkscape:current-layer="svg7052" />
  <metadata
     id="metadata7058">
    <rdf:RDF>
      <cc:Work
         rdf:about="">
        <dc:format>image/svg+xml</dc:format>
        <dc:type
           rdf:resource="http://purl.org/dc/dcmitype/StillImage" />
        <dc:title />
      </cc:Work>
    </rdf:RDF>
  </metadata>
  <defs
     id="defs7056" />
  <rect
     ry="2.2644882"
     y="6.5638962"
     x="4.3469062"
     height="37.042721"
     width="39.307442"
     id="rect7078"
     style="display:inline;opacity:1;fill-opacity:1;stroke:none;stroke-width:0.759;stroke-linecap:square;stroke-linejoin:miter;stroke-miterlimit:4;stroke-dasharray:none;stroke-dashoffset:0;stroke-opacity:1;paint-order:normal;fill:%%contrast-darker%%" />
  <rect
     ry="1.3194247"
     y="7.4643517"
     x="5.2631392"
     height="35.256756"
     width="37.412281"
     id="rect7078-9"
     style="display:inline;opacity:1;fill-opacity:1;stroke:none;stroke-width:0.72240579;stroke-linecap:square;stroke-linejoin:miter;stroke-miterlimit:4;stroke-dasharray:none;stroke-dashoffset:0;stroke-opacity:1;paint-order:normal;fill:%%grey-dark%%" />
  <path
     id="rect7182"
     d="m 42.673987,45.16938 v 0.94875 0.22945 1.64742 h 5.086639 v -1.87687 h -4.819805 z"
     style="display:inline;opacity:1;fill-opacity:1;stroke:none;stroke-width:0.69048166;stroke-linecap:square;stroke-linejoin:miter;stroke-miterlimit:4;stroke-dasharray:none;stroke-dashoffset:0;stroke-opacity:1;paint-order:normal;fill:%%bg%%"
     inkscape:connector-curvature="0" />
  <path
     id="rect7137-6"
     d="m 43.654319,39.088873 c -0.599739,0.513674 -0.980332,1.275638 -0.980332,2.130819 v 3.114375 c 0,1.55397 1.25103,2.805003 2.805001,2.805003 h 2.281638 v -1.00032 h -2.386054 c -0.952891,0 -1.720253,-0.767357 -1.720253,-1.720249 z"
     style="display:inline;opacity:1;fill-opacity:1;stroke:none;stroke-width:0.759;stroke-linecap:square;stroke-linejoin:miter;stroke-miterlimit:4;stroke-dasharray:none;stroke-dashoffset:0;stroke-opacity:1;paint-order:normal;fill:%%contrast-darker%%"
     inkscape:connector-curvature="0" />
  <rect
     ry="0.0076014181"
     y="44.869026"
     x="42.61211"
     height="0.40992188"
     width="0.103125"
     id="rect7219"
     style="opacity:1;fill-opacity:1;stroke:none;stroke-width:0.759;stroke-linecap:square;stroke-linejoin:miter;stroke-miterlimit:4;stroke-dasharray:none;stroke-dashoffset:0;stroke-opacity:1;paint-order:normal;fill:%%contrast-darker%%" />
  <path
     id="rect7117-6"
     d="m 42.673987,44.338579 v 0.547852 c 0,1.605699 1.195943,2.919439 2.748926,3.108569 h 2.337713 v -0.2939 -0.30293 -0.2591 h -2.281639 c -1.552449,0 -2.802555,-1.248633 -2.805,-2.800491 z"
     style="display:inline;opacity:1;fill-opacity:1;stroke:none;stroke-width:0.95380032;stroke-linecap:square;stroke-linejoin:miter;stroke-miterlimit:4;stroke-dasharray:none;stroke-dashoffset:0;stroke-opacity:1;paint-order:normal;fill:%%grey-dark%%"
     inkscape:connector-curvature="0" />
  <path
     id="rect7078-9-3"
     d="m 6.5828145,8.3408648 c -0.730961,0 -1.319356,0.588393 -1.319356,1.319355 V 42.278656 c 0,0.0023 6.27e-4,0.0042 6.6e-4,0.0064 v 5.702174 c 0,0.004 0.0035,0.008 0.0077,0.008 H 42.666216 c 0.0042,0 0.0077,-0.004 0.0077,-0.008 v -5.695716 c 4.3e-5,-0.0044 0.0013,-0.0085 0.0013,-0.0129 V 9.6602198 c 0,-0.730962 -0.588393,-1.319355 -1.319354,-1.319355 z"
     style="display:inline;opacity:1;fill-opacity:1;stroke:none;stroke-width:0.72240579;stroke-linecap:square;stroke-linejoin:miter;stroke-miterlimit:4;stroke-dasharray:none;stroke-dashoffset:0;stroke-opacity:1;paint-order:normal;fill:%%bg%%"
     inkscape:connector-curvature="0" />
  <rect
     ry="0.0076014181"
     y="37.946999"
     x="16.287886"
     height="1.2707772"
     width="15.766503"
     id="rect7070"
     style="opacity:1;fill-opacity:1;stroke:none;stroke-width:0.759;stroke-linecap:square;stroke-linejoin:miter;stroke-miterlimit:4;stroke-dasharray:none;stroke-dashoffset:0;stroke-opacity:1;paint-order:normal;fill:%%accent%%" />
  <path
     id="rect7182-2"
     d="m 5.3272665,45.16938 v 0.94875 0.22945 1.64742 h -5.08664 v -1.87687 h 4.819806 z"
     style="display:inline;opacity:1;fill-opacity:1;stroke:none;stroke-width:0.69048166;stroke-linecap:square;stroke-linejoin:miter;stroke-miterlimit:4;stroke-dasharray:none;stroke-dashoffset:0;stroke-opacity:1;paint-order:normal;fill:%%bg%%"
     inkscape:connector-curvature="0" />
  <path
     id="rect7137-6-6"
     d="m 4.3778725,39.068248 v 5.329628 c 0,0.952892 -0.767362,1.720254 -1.720253,1.720254 h -2.357696 -0.02836 -0.02449 c -0.0042,0 -0.0077,0.004 -0.0077,0.008 v 0.98484 c 0,0.004 0.0035,0.008 0.0077,0.008 h 0.02449 0.02836 2.253282 c 1.553969,0 2.804999,-1.251034 2.804999,-2.805004 v -3.114375 c 1e-6,-0.855182 -0.380593,-1.617145 -0.980332,-2.13082 z"
     style="display:inline;opacity:1;fill-opacity:1;stroke:none;stroke-width:0.759;stroke-linecap:square;stroke-linejoin:miter;stroke-miterlimit:4;stroke-dasharray:none;stroke-dashoffset:0;stroke-opacity:1;paint-order:normal;fill:%%contrast-darker%%"
     inkscape:connector-curvature="0" />
  <path
     id="rect7117-6-1"
     d="m 5.3582045,44.317954 c -0.0024,1.551858 -1.252556,2.800486 -2.804999,2.800486 h -2.179805 -0.101836 -0.03094 V 47.995 h 0.132774 1.200117 c 0.03437,9.9e-4 0.06783,0.005 0.102481,0.005 h 0.547851 c 1.736468,1e-5 3.134355,-1.39787 3.134355,-3.13435 z"
     style="display:inline;opacity:1;fill-opacity:1;stroke:none;stroke-width:0.95379877;stroke-linecap:square;stroke-linejoin:miter;stroke-miterlimit:4;stroke-dasharray:none;stroke-dashoffset:0;stroke-opacity:1;paint-order:normal;fill:%%grey-dark%%"
     inkscape:connector-curvature="0" />
</svg>
